<svg width="195" height="77" viewBox="0 0 195 77" fill="none" xmlns="http://www.w3.org/2000/svg">
<g clip-path="url(#clip0_3105_2228)">
<path d="M111.125 24.501H104.481L100.683 29.6656H107.426L111.125 24.501Z" fill="white"/>
<path d="M190.53 24.4662C190.138 25.2138 189.09 26.7062 186.897 29.9711H192.952L196.487 24.5348L190.53 24.4662ZM124.708 43.9025C124.404 45.0067 124.02 46.0858 123.562 47.1308C122.819 48.5459 121.953 49.8879 120.976 51.1404C116.099 58.1404 111.255 59.7378 109.356 60.1452C109.096 60.185 108.833 60.2079 108.57 60.2138C108.095 60.2298 107.624 60.1157 107.204 59.883C106.785 59.6503 106.432 59.3072 106.18 58.888C104.577 56.1356 106.409 49.8832 110.206 44.9566C111.407 43.4242 112.697 41.9693 114.069 40.5998C115.417 39.2718 116.898 38.0984 118.488 37.0998C119.903 36.1342 121.523 35.5395 123.208 35.3666C124.057 35.2631 124.915 35.4674 125.636 35.9448C120.53 36.8282 118.861 46.988 124.719 43.8969M52.6646 46.2474C50.1118 57.2598 38.3283 63.1398 33.4196 65.0732C32.0387 65.6799 30.5645 66.025 29.0665 66.0924C28.3755 66.16 27.6856 65.9534 27.1354 65.5143C26.8449 65.2503 26.6368 64.9026 26.5376 64.5153C26.4384 64.1281 26.4526 63.7189 26.5784 63.34C27.2001 60.2824 32.1749 54.7762 41.2775 50.0876C43.9586 48.7862 46.6884 47.5957 49.4605 46.519C50.2791 46.2474 51.1624 45.8736 52.0457 45.6692L52.7658 45.4312L52.6646 46.2474ZM46.4452 39.5527C44.8091 40.5111 43.0441 41.21 41.2088 41.626C39.4089 42.1149 37.5117 42.0561 35.7431 41.4566C35.5176 41.3535 35.3081 41.2162 35.1214 41.0492C34.3352 40.1322 35.6784 38.9758 36.2677 38.5685C37.4777 37.7609 38.8384 37.228 40.2607 37.0047C42.6531 36.7371 45.0725 36.9332 47.3959 37.5828L48.7444 37.9902C48.0083 38.5541 47.243 39.0757 46.4519 39.5527M175.54 44.5478C171.901 48.3413 167.796 51.6203 163.331 54.3002L162.545 54.8098C158.552 57.46 153.805 59.3977 152.497 57.9025C151.843 57.1549 152.105 55.8976 153.381 53.995L163.429 39.1789C164.247 38.0238 165.13 35.9169 164.41 34.5238C163.756 33.3689 161.922 32.96 159.108 33.2639C155.966 33.5354 149.975 36.3564 147.063 38.5306L147.129 37.6809C147.197 37.0643 147.132 36.4399 146.94 35.8524C146.747 35.2649 146.432 34.7289 146.016 34.2831C145.434 33.7646 144.757 33.3734 144.026 33.1329C143.295 32.8923 142.525 32.8074 141.761 32.883C136.787 33.1547 130.633 37.9468 128.865 39.4407L128.047 40.1196C128.701 35.9407 127.49 32.4742 121.958 32.7794C115.868 33.5587 110.284 36.6884 106.315 41.5462C103.292 44.9683 101.379 49.2892 100.847 53.8998V54.0692L100.748 54.1714C97.9111 56.8013 94.3958 58.5136 90.6342 59.098C89.4205 59.2674 88.637 58.9958 88.2446 58.3504C87.5905 57.1604 88.9647 55.1907 89.2263 54.7818L104.544 33.436H97.9042L86.4119 48.9312C81.5342 55.7912 76.6255 59.8736 73.679 59.8736C73.1764 59.8884 72.6808 59.7478 72.2554 59.4696C71.8299 59.1914 71.4937 58.7882 71.2894 58.3112C70.6353 56.8161 72.2333 54.709 72.4019 54.4039L84.1855 38.0938C85.2333 36.6938 86.0181 34.5938 85.3317 33.6138C85.0701 33.2065 84.3877 32.6339 82.4512 32.9348C82.0588 33.0034 81.665 33.1042 81.3387 33.1728C79.9902 33.5131 74.4328 35.585 75.0221 34.7366L75.9661 33.8868C78.7805 31.3668 80.5511 28.382 80.3853 26.4108C80.3506 25.9655 80.151 25.5515 79.8283 25.2558C79.6517 25.0903 79.438 24.9734 79.2066 24.9156C79.0007 24.8816 78.7909 24.8816 78.585 24.9156C78.1358 25.0138 77.7047 25.1858 77.3079 25.4252C76.4893 25.9012 73.8381 27.8374 72.6595 32.9012L72.5934 33.0034C72.4744 33.5298 72.3871 34.0633 72.3318 34.6008L72.2657 34.8388C70.6623 36.572 66.177 39.2558 61.3654 40.9218C60.0169 41.3979 58.551 41.738 57.1108 42.1119C56.4199 40.4752 55.3385 39.0484 53.9687 37.9664L54.5256 37.6262C64.5736 31.714 72.0041 22.6462 73.8705 17.1358C74.9183 13.976 75.9648 6.15985 72.3641 2.25245C71.6296 1.49064 70.7498 0.896712 69.7812 0.508782C68.8125 0.120851 67.7764 -0.0525036 66.7394 -0.000153278C64.9919 0.0341356 63.2596 0.343317 61.6014 0.916847C50.3748 4.41685 40.7516 11.0094 32.0778 21.067C18.6895 36.5637 8.51065 54.3003 0 76.9663H8.80463C10.8018 70.8833 12.83 64.4614 15.3181 58.3784C19.8662 46.561 26.1488 35.5456 33.9428 25.7234C42.7798 14.578 52.5675 6.79545 63.0417 2.54785C65.8561 1.52865 67.8533 1.56785 68.9658 2.81945C71.2246 5.40245 68.7042 11.9936 66.9686 15.6644C65.9597 17.7255 64.8339 19.7226 63.5973 21.6452V21.7138C60.84 25.815 57.717 29.6376 54.2694 33.1309C53.223 34.2238 52.1196 35.2562 50.9641 36.2234L50.5717 36.0835C47.3502 34.9614 43.9298 34.5914 40.5547 34.9999C38.0873 35.2336 35.7144 36.0995 33.6488 37.5198C32.5363 38.2674 30.2114 40.2722 31.5869 41.836C31.8796 42.112 32.2106 42.3409 32.5686 42.515C35.3831 43.7751 38.9189 43.432 41.8642 42.8553C42.1979 42.8083 42.5266 42.7286 42.8459 42.6172C44.4402 42.239 45.9962 41.7041 47.493 41.0198L48.6392 40.5103C49.2609 40.2387 49.9163 39.932 50.5043 39.6604C50.6674 39.5919 50.832 39.4911 50.9951 39.4225L51.3228 39.2531L51.5521 39.5247C52.3093 40.4864 52.682 41.7132 52.5932 42.9519V43.292L52.3383 43.3998C50.1176 44.0826 47.9228 44.8532 45.7587 45.7099C42.9891 46.7266 40.2862 47.9299 37.6675 49.312C37.1105 49.5836 36.6197 49.8902 36.1288 50.1282C36.0627 50.1968 35.9656 50.1968 35.8996 50.2304C26.3424 55.633 23.3959 60.6618 22.6434 62.4972C22.272 63.2368 22.0592 64.0511 22.0197 64.8841C21.9801 65.7171 22.1147 66.5491 22.4141 67.3231C22.7744 67.8661 23.24 68.325 23.7811 68.6702C24.3222 69.0155 24.9268 69.2395 25.5562 69.3279C30.531 70.5879 39.8279 68.6488 49.385 61.5117C52.3027 59.2128 54.7134 56.2929 56.4554 52.9478C57.9646 50.0485 58.3964 46.675 57.6691 43.467C62.9254 41.8194 67.9059 39.3413 72.4356 36.1199H72.6649C73.9831 35.9766 75.2799 35.6687 76.5271 35.2029C77.1811 34.9649 78.0658 34.7955 78.4582 35.3722C78.9491 36.1884 77.672 37.6823 76.9519 38.5321C73.5988 43.1366 70.2817 47.7694 67.001 52.4298C64.5736 55.9298 64.8433 58.2398 65.1683 59.3276C65.3349 59.8505 65.6263 60.321 66.0154 60.6953C66.4045 61.0696 66.8786 61.3356 67.3934 61.4682C74.7578 63.0656 79.9349 57.7988 82.876 54.7062C80.7777 61.1994 85.5934 62.8598 89.3895 61.5998C93.5051 60.1959 97.3426 58.0317 100.717 55.2116L100.783 56.0278C101.013 58.3728 101.93 60.106 103.368 60.7878C107.362 62.6232 114.53 61.7048 121.666 53.3119L121.599 53.414C124.389 49.9932 126.422 45.9789 127.556 41.654C130.611 38.5516 134.505 36.4892 138.718 35.7419C139.932 35.5724 140.715 35.844 141.107 36.4894C141.761 37.6794 140.387 39.6493 140.126 40.0581L124.708 61.4025H131.451C131.778 60.995 132.072 60.5526 132.395 60.1424L134.719 57.0526L137.698 53.0766C138.642 51.8166 139.565 50.4936 140.579 49.2364C141.232 48.3139 141.919 47.4185 142.641 46.5526C143.791 44.8987 145.026 43.3098 146.34 41.7926C148.129 39.8674 150.294 38.3614 152.69 37.3756C153.718 36.9318 154.796 36.6237 155.898 36.4586C156.552 36.39 157.502 36.2892 157.993 36.8661C158.32 37.2062 158.483 37.8461 157.665 39.0402L152.035 47.0594C150.922 48.5546 149.711 50.2878 149.285 50.9668C148.071 52.7336 144.31 58.069 145.684 60.5498C146.338 61.7398 148.27 62.1137 151.445 61.7048C158.679 60.6856 167.974 53.5499 174.456 47.7734L176.55 45.8708L175.11 48.3516C169.756 57.4593 165.201 67.0471 161.497 76.9998H169.222C173.807 59.7379 188.173 37.3798 190.727 33.674H184.119C183.268 35.074 181.894 37.7172 175.544 44.5478" fill="white"/>
</g>
<defs>
<clipPath id="clip0_3105_2228">
<rect width="195" height="77" fill="white"/>
</clipPath>
</defs>
</svg>
