<svg width="20" height="20" viewBox="0 0 20 20" fill="none" xmlns="http://www.w3.org/2000/svg">
<path fill-rule="evenodd" clip-rule="evenodd" d="M1.5 3C1.5 1.61929 2.61929 0.5 4 0.5H14C15.3807 0.5 16.5 1.61929 16.5 3V9H15.5V3C15.5 2.17157 14.8284 1.5 14 1.5H4C3.17157 1.5 2.5 2.17157 2.5 3V17C2.5 17.8284 3.17157 18.5 4 18.5H14C14.8284 18.5 15.5 17.8284 15.5 17H16.5C16.5 18.3807 15.3807 19.5 14 19.5H4C2.61929 19.5 1.5 18.3807 1.5 17V3Z" fill="white"/>
<path fill-rule="evenodd" clip-rule="evenodd" d="M4 4C4 3.72386 4.22386 3.5 4.5 3.5H9.9C10.1761 3.5 10.4 3.72386 10.4 4C10.4 4.27614 10.1761 4.5 9.9 4.5H4.5C4.22386 4.5 4 4.27614 4 4ZM4 7C4 6.72386 4.22386 6.5 4.5 6.5H13.5C13.7761 6.5 14 6.72386 14 7C14 7.27614 13.7761 7.5 13.5 7.5H4.5C4.22386 7.5 4 7.27614 4 7ZM4 10C4 9.72386 4.22386 9.5 4.5 9.5H8.1C8.37614 9.5 8.6 9.72386 8.6 10C8.6 10.2761 8.37614 10.5 8.1 10.5H4.5C4.22386 10.5 4 10.2761 4 10Z" fill="white"/>
<path fill-rule="evenodd" clip-rule="evenodd" d="M15.1242 9.54612C15.1242 9.54613 15.1242 9.54612 15.1242 9.54612L12.5682 10.1951C12.5485 10.2001 12.5308 10.2117 12.5184 10.2279C12.5064 10.2437 12.4999 10.2631 12.5 10.2829C12.5836 13.058 13.4209 14.5987 14.1818 15.4392C14.566 15.8635 14.941 16.1208 15.2126 16.2704C15.3266 16.3331 15.4225 16.3769 15.4931 16.406C15.5638 16.3769 15.6597 16.3331 15.7736 16.2704C16.0453 16.1208 16.4203 15.8635 16.8045 15.4392C17.5657 14.5984 18.4033 13.0569 18.4864 10.2799C18.4873 10.2461 18.463 10.2067 18.4176 10.195C18.4175 10.195 18.4176 10.195 18.4176 10.195L15.8621 9.54612C15.8621 9.54612 15.8621 9.54613 15.8621 9.54612C15.6199 9.48463 15.3664 9.48463 15.1242 9.54612ZM15.4931 16.9365C15.3645 17.4197 15.3641 17.4196 15.3637 17.4195L15.3609 17.4187L15.356 17.4173L15.3426 17.4135C15.3321 17.4104 15.3185 17.4063 15.3019 17.4009C15.2688 17.3902 15.224 17.3747 15.169 17.3533C15.0591 17.3106 14.9085 17.2444 14.7305 17.1464C14.3741 16.9503 13.9081 16.6268 13.4405 16.1103C12.4982 15.0696 11.5894 13.2902 11.5004 10.3094L11.5002 10.3047C11.4952 10.0584 11.5737 9.81773 11.723 9.6218C11.8723 9.42595 12.0834 9.2864 12.3221 9.22588L14.8781 8.57688C15.2818 8.47438 15.7044 8.47437 16.1082 8.57687L18.6642 9.22588C19.1506 9.35022 19.5009 9.79496 19.4859 10.3091C19.3969 13.2899 18.4881 15.0696 17.5458 16.1103C17.0782 16.6268 16.6122 16.9503 16.2558 17.1464C16.0778 17.2444 15.9272 17.3106 15.8173 17.3533C15.7623 17.3747 15.7175 17.3902 15.6843 17.4009C15.6678 17.4063 15.6542 17.4104 15.6437 17.4135L15.6303 17.4173L15.6254 17.4187L15.6234 17.4192C15.623 17.4193 15.6218 17.4197 15.4931 16.9365ZM15.4931 16.9365L15.6218 17.4197C15.5375 17.4421 15.448 17.4419 15.3637 17.4195L15.4931 16.9365Z" fill="white"/>
</svg>
