<svg width="20" height="20" viewBox="0 0 20 20" fill="none" xmlns="http://www.w3.org/2000/svg">
<path fill-rule="evenodd" clip-rule="evenodd" d="M10 11C11.6569 11 13 9.65685 13 8C13 6.34315 11.6569 5 10 5C8.34315 5 7 6.34315 7 8C7 9.65685 8.34315 11 10 11ZM10 12C12.2091 12 14 10.2091 14 8C14 5.79086 12.2091 4 10 4C7.79086 4 6 5.79086 6 8C6 10.2091 7.79086 12 10 12Z" fill="white"/>
<path fill-rule="evenodd" clip-rule="evenodd" d="M15.4438 11.2722C16.1236 9.98415 16.5 8.85763 16.5 8C16.5 4.0471 13.7829 1 10 1C6.21708 1 3.5 4.0471 3.5 8C3.5 8.85763 3.87639 9.98415 4.55624 11.2722C5.22328 12.5359 6.12444 13.8485 7.04385 15.0487C7.96053 16.2454 8.87965 17.3101 9.57081 18.0767C9.72659 18.2495 9.87055 18.4068 10 18.5468C10.1295 18.4068 10.2734 18.2495 10.4292 18.0767C11.1204 17.3101 12.0395 16.2454 12.9561 15.0487C13.8756 13.8485 14.7767 12.5359 15.4438 11.2722ZM10.6891 19.2745C12.5434 17.2743 17.5 11.5918 17.5 8C17.5 3.58172 14.4183 0 10 0C5.58172 0 2.5 3.58172 2.5 8C2.5 11.5918 7.4566 17.2743 9.31091 19.2745C9.73758 19.7347 10 20 10 20C10 20 10.2624 19.7347 10.6891 19.2745Z" fill="white"/>
</svg>
