<svg width="20" height="20" viewBox="0 0 20 20" fill="none" xmlns="http://www.w3.org/2000/svg">
<path fill-rule="evenodd" clip-rule="evenodd" d="M18 4H2C1.44772 4 1 4.44772 1 5V15C1 15.5523 1.44772 16 2 16H18C18.5523 16 19 15.5523 19 15V5C19 4.44772 18.5523 4 18 4ZM2 3C0.895431 3 0 3.89543 0 5V15C0 16.1046 0.895431 17 2 17H18C19.1046 17 20 16.1046 20 15V5C20 3.89543 19.1046 3 18 3H2Z" fill="white"/>
<path d="M5.99995 14V10.7857C5.99995 9.60225 5.31445 9 4.46884 9C3.62323 9 2.79163 9.71429 3.04686 11.1429C3.22622 12.1467 3.9636 12.6215 4.84161 13.1869C5.21309 13.4261 5.60974 13.6815 5.99995 14Z" fill="white"/>
<path d="M5.99995 14V10.7857C5.99995 9.60225 6.68555 9 7.53116 9C8.37677 9 9.20837 9.71429 8.95314 11.1429C8.77378 12.1467 8.0364 12.6215 7.15839 13.1869C6.78691 13.4261 6.39017 13.6815 5.99995 14Z" fill="white"/>
<path fill-rule="evenodd" clip-rule="evenodd" d="M10.5 13C10.5 12.7239 10.7239 12.5 11 12.5H17C17.2761 12.5 17.5 12.7239 17.5 13C17.5 13.2761 17.2761 13.5 17 13.5H11C10.7239 13.5 10.5 13.2761 10.5 13Z" fill="white"/>
<path fill-rule="evenodd" clip-rule="evenodd" d="M10.5 11C10.5 10.7239 10.7239 10.5 11 10.5H17C17.2761 10.5 17.5 10.7239 17.5 11C17.5 11.2761 17.2761 11.5 17 11.5H11C10.7239 11.5 10.5 11.2761 10.5 11Z" fill="white"/>
</svg>
