<svg width="200" height="130" viewBox="0 0 200 130" fill="none" xmlns="http://www.w3.org/2000/svg">
<path d="M99.455 64.6458C99.7864 64.8612 100.214 64.8612 100.545 64.6458L197.172 1.83844C198.006 1.29594 197.622 0 196.627 0H3.37337C2.37794 0 1.99376 1.29595 2.82837 1.83844L99.455 64.6458Z" fill="#BEA68A"/>
<path d="M99.4609 75.655C99.7895 75.8653 100.21 75.8653 100.539 75.655L124.346 60.4185C124.731 60.1722 125.234 60.218 125.568 60.5297L198.145 128.269C198.809 128.888 198.371 130 197.463 130H2.53701C1.62939 130 1.19118 128.888 1.8547 128.269L74.4325 60.5297C74.7664 60.218 75.2691 60.1722 75.6539 60.4185L99.4609 75.655Z" fill="#BEA68A"/>
<path d="M68.9158 54.303C69.4652 54.6562 69.5341 55.4326 69.0555 55.877L1.68045 118.44C1.0406 119.034 2.73775e-06 118.58 2.71535e-06 117.707L0 11.8317C-2.02908e-08 11.0405 0.875246 10.5627 1.54076 10.9905L68.9158 54.303Z" fill="#BEA68A"/>
<path d="M131.084 54.303C130.535 54.6562 130.466 55.4326 130.944 55.877L198.32 118.44C198.959 119.034 200 118.58 200 117.707V11.8317C200 11.0405 199.125 10.5627 198.459 10.9905L131.084 54.303Z" fill="#BEA68A"/>
</svg>
