<svg width="15" height="15" viewBox="0 0 15 15" fill="none" xmlns="http://www.w3.org/2000/svg">
<path d="M14.8187 0.114303C14.7116 0.0330918 14.5721 -0.00759896 14.4307 0.00117308C14.2894 0.00994511 14.1578 0.0674624 14.0648 0.161086L7.51779 6.76786L0.968054 0.158746C0.871512 0.0783447 0.74413 0.0323917 0.610878 0.0298942C0.477626 0.0273967 0.348112 0.0685353 0.247724 0.145246C0.147336 0.221956 0.0833113 0.328706 0.0682018 0.444572C0.0530924 0.560438 0.0879872 0.677065 0.166046 0.77159L6.81068 7.48246L0.166046 14.1933C0.112181 14.2382 0.0696035 14.2924 0.0410337 14.3525C0.0124639 14.4125 -0.00146995 14.4771 0.000122638 14.5422C0.00171523 14.6073 0.0187992 14.6713 0.0502828 14.7302C0.0817665 14.7892 0.126957 14.8417 0.182968 14.8845C0.238979 14.9273 0.304578 14.9594 0.375573 14.9788C0.446569 14.9982 0.5214 15.0044 0.595285 14.997C0.669169 14.9896 0.740483 14.9688 0.804669 14.936C0.868855 14.9031 0.924502 14.8589 0.968054 14.8062L7.51779 8.19705L14.0675 14.8062C14.1641 14.8866 14.2914 14.9325 14.4247 14.935C14.5579 14.9375 14.6875 14.8964 14.7879 14.8197C14.8882 14.743 14.9523 14.6362 14.9674 14.5203C14.9825 14.4045 14.9476 14.2878 14.8695 14.1933L8.22489 7.48246L14.8695 0.77159C14.9618 0.678312 15.0083 0.556903 14.9988 0.433798C14.9893 0.310692 14.9246 0.195859 14.8187 0.114303Z" fill="#BEA68A"/>
</svg>
