<svg width="16" height="16" viewBox="0 0 16 16" fill="none" xmlns="http://www.w3.org/2000/svg">
<path d="M8 15.5C12.1421 15.5 15.5 12.1421 15.5 8C15.5 3.85786 12.1421 0.5 8 0.5C3.85786 0.5 0.5 3.85786 0.5 8C0.5 12.1421 3.85786 15.5 8 15.5Z" stroke="#BEA68A" stroke-width="0.833333"/>
<path d="M8.00016 13.4168C8.23028 13.4168 8.41683 13.2303 8.41683 13.0002C8.41683 12.77 8.23028 12.5835 8.00016 12.5835C7.77004 12.5835 7.5835 12.77 7.5835 13.0002C7.5835 13.2303 7.77004 13.4168 8.00016 13.4168Z" fill="#BEA68A"/>
<path d="M8 11.3335V10.6193C8 10.0243 8.2975 9.4685 8.7925 9.1385L9.29167 8.80516C9.66324 8.55711 9.96791 8.22125 10.1787 7.82733C10.3894 7.43341 10.4998 6.99359 10.5 6.54683V6.3335C10.5 5.67045 10.2366 5.03457 9.76777 4.56573C9.29893 4.09689 8.66304 3.8335 8 3.8335C7.33696 3.8335 6.70107 4.09689 6.23223 4.56573C5.76339 5.03457 5.5 5.67045 5.5 6.3335" stroke="#BEA68A" stroke-width="0.833333"/>
</svg>
