<svg width="36" height="36" viewBox="0 0 36 36" fill="none" xmlns="http://www.w3.org/2000/svg">
<rect x="0.5" y="0.5" width="35" height="35" rx="17.5" stroke="white"/>
<path d="M29.9331 31.2501C27.8672 27.6803 24.5557 25.243 20.719 24.3643C22.5421 23.6177 24.0493 22.2616 24.9831 20.5276C25.9169 18.7937 26.2192 16.7894 25.8386 14.8573C25.458 12.9252 24.4179 11.1852 22.8961 9.93447C21.3743 8.68376 19.4652 8 17.495 8C15.5248 8 13.6157 8.68376 12.0939 9.93447C10.5722 11.1852 9.53209 12.9252 9.15145 14.8573C8.77081 16.7894 9.07321 18.7937 10.007 20.5276C10.9408 22.2616 12.448 23.6177 14.2711 24.3643C10.4394 25.2392 7.12291 27.6803 5.05698 31.2501C4.99718 31.3643 4.98386 31.4973 5.01981 31.6211C5.05576 31.7449 5.13819 31.8501 5.24989 31.9147C5.36159 31.9792 5.49392 31.9981 5.61923 31.9674C5.74455 31.9367 5.85315 31.8588 5.92237 31.75C8.36596 27.5241 12.6954 25.0005 17.495 25.0005C22.2947 25.0005 26.6241 27.5241 29.0677 31.75C29.1115 31.8259 29.1746 31.889 29.2506 31.9329C29.3265 31.9768 29.4127 31.9999 29.5004 32C29.5883 32.0003 29.6747 31.977 29.7505 31.9325C29.8652 31.8661 29.9488 31.757 29.983 31.629C30.0173 31.5011 29.9993 31.3648 29.9331 31.2501ZM9.99168 16.5011C9.99168 15.0179 10.4317 13.5679 11.2562 12.3346C12.0807 11.1013 13.2526 10.1401 14.6236 9.5725C15.9947 9.00489 17.5034 8.85637 18.9589 9.14574C20.4144 9.43511 21.7513 10.1494 22.8007 11.1982C23.8501 12.247 24.5647 13.5833 24.8542 15.038C25.1437 16.4928 24.9951 18.0007 24.4272 19.371C23.8593 20.7414 22.8976 21.9126 21.6637 22.7367C20.4297 23.5607 18.9791 24.0006 17.495 24.0006C15.5057 23.9983 13.5986 23.2074 12.1919 21.8015C10.7853 20.3955 9.994 18.4894 9.99168 16.5011Z" fill="white"/>
</svg>
